#N canvas 0 0 3844 2059 12;
#X text 75 37 BPM;
#X obj 27 373 receive ON;
#X obj 48 444 metro;
#X obj 130 372 receive 4th_time;
#X obj 291 371 receive ON;
#X obj 404 372 receive 4th_time;
#X obj 405 401 * 1;
#X floatatom 407 443 5 0 0 0 - - - 0;
#X obj 293 420 metro;
#X obj 130 403 * 4;
#X floatatom 130 427 5 0 0 0 - - - 0;
#X obj 125 463 send whole_time;
#X obj 48 494 bng 19 250 50 0 empty empty empty 0 -10 0 12 #fcfcfc #000000 #000000;
#X obj 46 528 send whole_note;
#X obj 294 469 bng 19 250 50 0 empty empty empty 0 -10 0 12 #fcfcfc #000000 #000000;
#X obj 295 519 send 4th_note;
#X obj 260 108 tgl 19 1 empty empty empty 0 -10 0 12 #fcfcfc #000000 #000000 0 1;
#X text 261 6 on/off;
#X text 471 8 clock/sequencer;
#X obj 478 35 receive ON;
#X obj 478 59 sel 0;
#X obj 479 95 bng 19 250 50 0 empty empty empty 0 -10 0 12 #fcfcfc #000000 #000000;
#X msg 477 124 -1;
#X obj 580 83 receive whole_note;
#X obj 580 118 bng 19 250 50 0 empty empty empty 0 -10 0 12 #fcfcfc #000000 #000000;
#X obj 580 142 int 1;
#X obj 667 184 + 1;
#X floatatom 580 172 5 0 0 0 - - - 0;
#X obj 580 207 % 2;
#X obj 581 263 sel 1;
#X obj 579 235 + 1;
#X obj 580 293 bng 19 250 50 0 empty empty empty 0 -10 0 12 #fcfcfc #000000 #000000;
#X obj 580 328 tgl 19 0 empty empty empty 0 -10 0 12 #fcfcfc #000000 #000000 0 1;
#X obj 582 364 send Chord;
#X obj 443 268 receive ON;
#X obj 444 294 sel 0;
#X obj 373 66 loadbang;
#X obj 496 291 loadbang;
#X msg 485 325 1;
#X text 408 94 reset;
#X floatatom 325 872 5 0 0 0 - - - 0;
#X obj 327 905 phasor~;
#X obj 322 942 lop~ 100;
#X obj 327 980 *~;
#X obj 433 664 receive ON;
#X obj 553 663 receive whole_time;
#X obj 432 730 bng 19 250 50 0 empty empty empty 0 -10 0 12 #fcfcfc #000000 #000000;
#X obj 432 883 line;
#X obj 557 691 * 2;
#X floatatom 524 720 5 0 0 0 - - - 0;
#X obj 620 712 receive ON;
#X obj 621 745 sel 0;
#X obj 618 777 delay 5;
#X obj 549 744 - 100;
#X obj 516 783 delay;
#X msg 516 839 0 100;
#X obj 1019 188 r whole_note;
#X floatatom 840 354 5 0 0 0 - - - 0;
#X obj 844 419 phasor~;
#X obj 861 466 lop~ 100;
#X obj 849 508 *~;
#X obj 848 546 *~ 0.5;
#X obj 964 349 * 1.001;
#X floatatom 965 379 5 0 0 0 - - - 0;
#X obj 973 419 phasor~;
#X obj 1032 287 bng 19 250 50 0 empty empty empty 0 -10 0 12 #fcfcfc #000000 #000000;
#X msg 1042 394 1 500;
#X obj 1052 456 line;
#X obj 1160 344 delay;
#X obj 1179 220 receive whole_time;
#X floatatom 1180 246 5 0 0 0 - - - 0;
#X obj 1258 260 receive ON;
#X obj 1258 300 sel 0;
#X msg 1169 406 0 500;
#X obj 1184 292 - 500;
#X obj 1002 928 dac~;
#X msg 433 766 1 500;
#X text 853 666 output;
#X obj 430 695 sel 1;
#X obj 59 146 send 4th_time;
#X text 241 344 clock;
#X text 1362 790 sometime you have to delete "freeverb~" and re-create it;
#X text 36 190 comment;
#X obj 1257 348 delay 5;
#X text 1183 189 delays;
#X text 799 77 melody;
#X obj 846 601 send~ melody;
#X obj 1066 702 receive~ melody;
#X obj 845 712 receive~ bass;
#X obj 323 1011 send~ bass;
#X text 439 623 bass;
#X obj 67 63 tgl 19 1 empty empty empty 0 -10 0 12 #fcfcfc #000000 #000000 1 1;
#X msg 66 110 1000;
#X obj 57 604 r Chord;
#X obj 87 646 tgl 19 0 empty empty empty 0 -10 0 12 #fcfcfc #000000 #000000 0 1;
#X obj 58 683 bng 19 250 50 0 empty empty empty 0 -10 0 12 #fcfcfc #000000 #000000;
#X obj 816 115 tgl 19 0 empty empty empty 0 -10 0 12 #fcfcfc #000000 #000000 0 1;
#X obj 816 150 bng 19 250 50 0 empty empty empty 0 -10 0 12 #fcfcfc #000000 #000000;
#X obj 260 140 send ON;
#X obj 256 78 bng 19 250 50 0 empty empty empty 0 -10 0 12 #fcfcfc #000000 #000000;
#X obj 145 33 receive triggerON;
#X obj 295 36 receive triggerOFF;
#X obj 106 835 print;
#X obj 768 358 print;
#X obj 244 700 receive LR;
#X obj 919 231 receive FB;
#X obj 581 548 tgl 19 0 empty empty empty 0 -10 0 12 #fcfcfc #000000 #000000 0 1;
#X floatatom 214 759 5 0 0 0 - - - 0;
#X obj 169 788 +;
#X obj 166 709 + 1;
#X obj 93 699 int 1;
#X msg 134 741 0;
#X obj 795 191 int 1;
#X obj 860 214 + 1;
#X obj 867 289 +;
#X floatatom 916 271 5 0 0 0 - - - 0;
#X msg 824 258 0;
#X obj 939 878 *~ 0.7;
#X obj 1083 879 *~ 0.7;
#X connect 1 0 2 0;
#X connect 2 0 12 0;
#X connect 3 0 9 0;
#X connect 4 0 8 0;
#X connect 5 0 6 0;
#X connect 6 0 7 0;
#X connect 7 0 8 1;
#X connect 8 0 14 0;
#X connect 9 0 10 0;
#X connect 10 0 11 0;
#X connect 10 0 2 1;
#X connect 12 0 13 0;
#X connect 14 0 15 0;
#X connect 16 0 98 0;
#X connect 19 0 20 0;
#X connect 20 0 21 0;
#X connect 21 0 22 0;
#X connect 22 0 25 0;
#X connect 23 0 24 0;
#X connect 24 0 25 0;
#X connect 25 0 26 0;
#X connect 25 0 27 0;
#X connect 26 0 25 1;
#X connect 27 0 28 0;
#X connect 28 0 30 0;
#X connect 29 0 31 0;
#X connect 30 0 29 0;
#X connect 31 0 32 0;
#X connect 32 0 33 0;
#X connect 34 0 35 0;
#X connect 35 0 38 0;
#X connect 36 0 21 0;
#X connect 37 0 38 0;
#X connect 38 0 32 0;
#X connect 40 0 41 0;
#X connect 41 0 42 0;
#X connect 42 0 43 0;
#X connect 43 0 89 0;
#X connect 44 0 78 0;
#X connect 45 0 48 0;
#X connect 46 0 76 0;
#X connect 47 0 43 1;
#X connect 48 0 49 0;
#X connect 49 0 53 0;
#X connect 50 0 51 0;
#X connect 51 0 52 0;
#X connect 52 0 55 0;
#X connect 53 0 54 0;
#X connect 54 0 55 0;
#X connect 55 0 47 0;
#X connect 56 0 65 0;
#X connect 56 0 96 0;
#X connect 57 0 58 0;
#X connect 57 0 62 0;
#X connect 58 0 59 0;
#X connect 59 0 60 0;
#X connect 60 0 61 0;
#X connect 61 0 86 0;
#X connect 62 0 63 0;
#X connect 63 0 64 0;
#X connect 64 0 59 0;
#X connect 65 0 68 0;
#X connect 65 0 66 0;
#X connect 66 0 67 0;
#X connect 67 0 60 1;
#X connect 68 0 73 0;
#X connect 69 0 70 0;
#X connect 70 0 74 0;
#X connect 71 0 72 0;
#X connect 72 0 83 0;
#X connect 73 0 67 0;
#X connect 74 0 68 1;
#X connect 76 0 47 0;
#X connect 78 0 46 0;
#X connect 83 0 73 0;
#X connect 87 0 117 0;
#X connect 87 0 118 0;
#X connect 88 0 117 0;
#X connect 88 0 118 0;
#X connect 91 0 92 0;
#X connect 92 0 79 0;
#X connect 93 0 94 0;
#X connect 94 0 95 0;
#X connect 95 0 110 0;
#X connect 96 0 97 0;
#X connect 97 0 112 0;
#X connect 99 0 16 0;
#X connect 100 0 99 0;
#X connect 101 0 99 0;
#X connect 104 0 107 0;
#X connect 105 0 115 0;
#X connect 107 0 108 1;
#X connect 108 0 40 0;
#X connect 109 0 110 1;
#X connect 110 0 109 0;
#X connect 110 0 111 0;
#X connect 111 0 108 0;
#X connect 112 0 113 0;
#X connect 112 0 116 0;
#X connect 113 0 112 1;
#X connect 114 0 57 0;
#X connect 115 0 114 1;
#X connect 116 0 114 0;
#X connect 117 0 75 0;
#X connect 118 0 75 1;
