#N canvas 1857 93 1916 1937 12;
#X obj 115 241 osc~;
#X obj 115 312 *~;
#X obj 115 365 dac~;
#X text 155 238 carrier osc;
#X obj 117 208 +~;
#X floatatom 159 171 5 0 10000 1 carrier\ frequency - - 0;
#X obj 113 78 osc~;
#X floatatom 110 30 5 0 0 0 - - - 0;
#X obj 117 124 *~;
#X floatatom 224 116 5 0 0 1 modulation\ amplitude - - 0;
#X obj 210 60 receive test;
#X text 252 320 vol;
#X obj 245 271 tgl 15 1 empty empty empty 17 7 0 10 #fcfcfc #000000 #000000 1 1;
#X msg 174 289 0.5;
#X connect 0 0 1 0;
#X connect 1 0 2 0;
#X connect 1 0 2 1;
#X connect 4 0 0 0;
#X connect 5 0 4 1;
#X connect 6 0 8 0;
#X connect 7 0 6 0;
#X connect 8 0 4 0;
#X connect 9 0 8 1;
#X connect 10 0 9 0;
#X connect 12 0 13 0;
#X connect 13 0 1 1;
