#N canvas 1463 226 3840 1955 12;
#X obj 115 241 osc~;
#X obj 115 312 *~;
#X obj 115 365 dac~;
#X text 155 238 carrier osc;
#X obj 117 208 +~;
#X floatatom 194 193 5 0 10000 1 carrier\ frequency - - 0;
#X obj 113 78 osc~;
#X floatatom 110 30 5 0 0 0 - - - 0;
#X obj 117 124 *~;
#X floatatom 226 113 5 0 0 1 modulation\ amplitude - - 0;
#X text 252 320 vol;
#X obj 245 271 tgl 15 1 empty empty empty 17 7 0 10 #fcfcfc #000000 #000000 1 1;
#X msg 174 289 1;
#X obj 204 60 receive LR;
#X obj 185 161 receive FB;
#X obj 402 232 print;
#X obj 586 155 print;
#X msg 399 187 0;
#X msg 486 120 0;
#X connect 0 0 1 0;
#X connect 1 0 2 0;
#X connect 1 0 2 1;
#X connect 4 0 0 0;
#X connect 5 0 4 1;
#X connect 6 0 8 0;
#X connect 7 0 6 0;
#X connect 8 0 4 0;
#X connect 9 0 8 1;
#X connect 9 0 18 0;
#X connect 11 0 12 0;
#X connect 12 0 1 1;
#X connect 13 0 9 0;
#X connect 14 0 5 0;
#X connect 14 0 17 0;
#X connect 17 0 15 0;
#X connect 18 0 16 0;
