#N canvas 2209 876 1429 688 12;
#X obj 230 121 +;
#X msg 199 67 32;
#X msg 262 86 42;
#X floatatom 221 182 5 0 0 0 - - - 0;
#X obj 55 218 osc~;
#X obj 33 300 dac~;
#X obj 79 262 *~;
#X floatatom 52 164 5 0 0 0 - - - 0;
#X msg 183 225 0.5;
#X connect 0 0 3 0;
#X connect 1 0 0 0;
#X connect 2 0 0 1;
#X connect 4 0 6 0;
#X connect 6 0 5 1;
#X connect 6 0 5 0;
#X connect 7 0 4 0;
#X connect 8 0 6 1;
