#N canvas 2126 560 1429 688 12;
#X obj 460 101 +;
#X msg 429 47 32;
#X msg 492 66 42;
#X floatatom 451 162 5 0 0 0 - - - 0;
#X obj 55 218 osc~;
#X obj 33 300 dac~;
#X obj 79 262 *~;
#X floatatom 52 164 5 0 0 0 - - - 0;
#X msg 183 225 0.5;
#X obj 179 162 bng 19 250 50 0 empty empty empty 0 -10 0 12 #fcfcfc #000000 #000000;
#X connect 0 0 3 0;
#X connect 1 0 0 0;
#X connect 2 0 0 1;
#X connect 4 0 6 0;
#X connect 6 0 5 1;
#X connect 6 0 5 0;
#X connect 7 0 4 0;
#X connect 8 0 6 1;
#X connect 9 0 8 0;
