#N canvas 281 106 3840 1955 12;
#X text 75 37 BPM;
#X obj 48 444 metro;
#X obj 405 401 * 1;
#X floatatom 407 443 5 0 0 0 - - - 0;
#X obj 293 420 metro;
#X obj 130 403 * 4;
#X floatatom 130 427 5 0 0 0 - - - 0;
#X obj 50 571 bng 19 250 50 0 empty empty empty 0 -10 0 12 #fcfcfc #000000 #000000;
#X obj 294 469 bng 19 250 50 0 empty empty empty 0 -10 0 12 #fcfcfc #000000 #000000;
#X obj 306 332 tgl 19 1 empty empty empty 0 -10 0 12 #fcfcfc #000000 #000000 1 1;
#X text 263 25 on/off;
#X text 527 6 clock/sequencer;
#X obj 478 59 sel 0;
#X obj 479 95 bng 19 250 50 0 empty empty empty 0 -10 0 12 #fcfcfc #000000 #000000;
#X msg 477 124 -1;
#X obj 580 118 bng 19 250 50 0 empty empty empty 0 -10 0 12 #fcfcfc #000000 #000000;
#X obj 580 142 int 1;
#X obj 667 184 + 1;
#X floatatom 580 172 5 0 0 0 - - - 0;
#X obj 580 207 % 2;
#X obj 581 263 sel 1;
#X obj 579 235 + 1;
#X obj 580 293 bng 19 250 50 0 empty empty empty 0 -10 0 12 #fcfcfc #000000 #000000;
#X obj 580 328 tgl 19 0 empty empty empty 0 -10 0 12 #fcfcfc #000000 #000000 0 1;
#X obj 439 281 sel 0;
#X obj 373 66 loadbang;
#X obj 496 291 loadbang;
#X msg 485 325 1;
#X text 408 94 reset;
#X obj 517 1293 phasor~;
#X obj 512 1330 lop~ 100;
#X obj 517 1368 *~;
#X obj 595 939 bng 19 250 50 0 empty empty empty 0 -10 0 12 #fcfcfc #000000 #000000;
#X obj 595 1092 line;
#X obj 720 900 * 2;
#X floatatom 687 929 5 0 0 0 - - - 0;
#X obj 784 954 sel 0;
#X obj 781 986 delay 5;
#X obj 712 953 - 100;
#X obj 679 992 delay;
#X msg 679 1048 0 100;
#X obj 1483 630 bng 19 250 50 0 empty empty empty 0 -10 0 12 #fcfcfc #000000 #000000;
#X floatatom 1539 1460 5 0 0 0 - - - 0;
#X obj 1543 1525 phasor~;
#X obj 1560 1572 lop~ 100;
#X obj 1548 1614 *~;
#X obj 1547 1652 *~ 0.5;
#X obj 1663 1455 * 1.001;
#X floatatom 1664 1485 5 0 0 0 - - - 0;
#X obj 1672 1525 phasor~;
#X obj 1787 623 bng 19 250 50 0 empty empty empty 0 -10 0 12 #fcfcfc #000000 #000000;
#X msg 1741 1500 1 500;
#X obj 1751 1562 line;
#X obj 1859 1450 delay;
#X floatatom 1894 610 5 0 0 0 - - - 0;
#X obj 1983 654 sel 0;
#X msg 1868 1512 0 500;
#X obj 1898 656 - 500;
#X obj 977 342 dac~;
#X msg 596 975 1 500;
#X text 828 80 output;
#X obj 593 904 sel 1;
#X text 241 344 clock;
#X text 36 190 comment;
#X obj 1971 712 delay 5;
#X text 1897 553 delays;
#X text 1524 558 melody;
#X text 602 832 bass;
#X obj 287 859 bng 19 250 50 0 empty empty empty 0 -10 0 12 #fcfcfc #000000 #000000;
#X floatatom 356 1303 5 0 0 0 - - - 0;
#X msg 57 106 1000;
#X obj 57 63 tgl 19 1 empty empty empty 0 -10 0 12 #fcfcfc #000000 #000000 1 1;
#X floatatom 295 979 5 0 0 0 - - - 0;
#X obj 119 1035 sel 1;
#X obj 194 1036 sel 2;
#X obj 273 1036 sel 3;
#X obj 343 1040 sel 4;
#X obj 403 1038 sel 5;
#X obj 484 1039 sel 6;
#X floatatom 275 1161 5 0 0 0 - - - 0;
#X obj 275 1184 mtof;
#X text 199 1239 midi to freq;
#X obj 27 1034 sel 0;
#X text 26 1066 A2;
#X text 111 1068 B2;
#X text 188 1067 D2;
#X text 268 1077 F2;
#X text 336 1068 G2;
#X text 404 1081 C3;
#X text 474 1079 E3;
#X obj 298 930 random 7;
#X msg 23 1092 45;
#X msg 119 1091 47;
#X msg 194 1092 38;
#X msg 274 1096 41;
#X msg 347 1098 43;
#X msg 408 1101 48;
#X msg 489 1103 52;
#X text 362 979 Bass C Major Scale (midi);
#X floatatom 1313 885 5 0 0 0 - - - 0;
#X obj 1137 941 sel 1;
#X obj 1212 942 sel 2;
#X obj 1291 942 sel 3;
#X obj 1361 946 sel 4;
#X obj 1421 944 sel 5;
#X obj 1502 945 sel 6;
#X obj 1577 944 sel 7;
#X msg 1137 997 62;
#X msg 1212 998 64;
#X msg 1292 1002 65;
#X msg 1365 1004 67;
#X msg 1426 1007 69;
#X msg 1507 1009 71;
#X msg 1588 1011 72;
#X text 1129 974 D;
#X text 1206 973 E;
#X text 1286 983 F;
#X text 1354 974 G;
#X text 1422 987 A;
#X text 1492 985 B;
#X text 1574 981 C;
#X floatatom 1293 1067 5 0 0 0 - - - 0;
#X obj 1293 1090 mtof;
#X text 1380 885 C Major Scale (midi);
#X text 1360 1138 midi to freq;
#X msg 1041 998 60;
#X text 1044 972 C;
#X obj 1045 940 sel 0;
#X obj 1316 837 random 8;
#X obj 49 363 tgl 19 1 empty empty empty 0 -10 0 12 #fcfcfc #000000 #000000 1 1;
#X obj 480 26 tgl 19 1 empty empty empty 0 -10 0 12 #fcfcfc #000000 #000000 1 1;
#X obj 815 883 tgl 19 1 empty empty empty 0 -10 0 12 #fcfcfc #000000 #000000 1 1;
#X obj 473 241 tgl 19 1 empty empty empty 0 -10 0 12 #fcfcfc #000000 #000000 1 1;
#X obj 565 845 tgl 19 1 empty empty empty 0 -10 0 12 #fcfcfc #000000 #000000 1 1;
#X obj 1994 589 tgl 19 1 empty empty empty 0 -10 0 12 #fcfcfc #000000 #000000 1 1;
#X obj 914 292 *~ 0.4;
#X obj 1058 293 *~ 0.4;
#X connect 1 0 7 0;
#X connect 2 0 3 0;
#X connect 3 0 4 1;
#X connect 4 0 8 0;
#X connect 5 0 6 0;
#X connect 6 0 1 1;
#X connect 6 0 34 0;
#X connect 6 0 54 0;
#X connect 7 0 41 0;
#X connect 7 0 50 0;
#X connect 7 0 15 0;
#X connect 9 0 4 0;
#X connect 12 0 13 0;
#X connect 13 0 14 0;
#X connect 14 0 16 0;
#X connect 15 0 16 0;
#X connect 16 0 17 0;
#X connect 16 0 18 0;
#X connect 17 0 16 1;
#X connect 18 0 19 0;
#X connect 19 0 21 0;
#X connect 20 0 22 0;
#X connect 21 0 20 0;
#X connect 22 0 23 0;
#X connect 23 0 68 0;
#X connect 24 0 27 0;
#X connect 25 0 13 0;
#X connect 26 0 27 0;
#X connect 27 0 23 0;
#X connect 29 0 30 0;
#X connect 30 0 31 0;
#X connect 31 0 135 0;
#X connect 31 0 136 0;
#X connect 32 0 59 0;
#X connect 33 0 31 1;
#X connect 34 0 35 0;
#X connect 35 0 38 0;
#X connect 36 0 37 0;
#X connect 37 0 40 0;
#X connect 38 0 39 0;
#X connect 39 0 40 0;
#X connect 40 0 33 0;
#X connect 41 0 128 0;
#X connect 42 0 43 0;
#X connect 42 0 47 0;
#X connect 43 0 44 0;
#X connect 44 0 45 0;
#X connect 45 0 46 0;
#X connect 46 0 135 0;
#X connect 46 0 136 0;
#X connect 47 0 48 0;
#X connect 48 0 49 0;
#X connect 49 0 44 0;
#X connect 50 0 53 0;
#X connect 50 0 51 0;
#X connect 51 0 52 0;
#X connect 52 0 45 1;
#X connect 53 0 56 0;
#X connect 54 0 57 0;
#X connect 55 0 64 0;
#X connect 56 0 52 0;
#X connect 57 0 53 1;
#X connect 59 0 33 0;
#X connect 61 0 32 0;
#X connect 64 0 56 0;
#X connect 68 0 90 0;
#X connect 69 0 29 0;
#X connect 70 0 2 0;
#X connect 70 0 5 0;
#X connect 71 0 70 0;
#X connect 72 0 73 0;
#X connect 72 0 74 0;
#X connect 72 0 75 0;
#X connect 72 0 76 0;
#X connect 72 0 77 0;
#X connect 72 0 78 0;
#X connect 72 0 82 0;
#X connect 73 0 92 0;
#X connect 74 0 93 0;
#X connect 75 0 94 0;
#X connect 76 0 95 0;
#X connect 77 0 96 0;
#X connect 78 0 97 0;
#X connect 79 0 80 0;
#X connect 80 0 69 0;
#X connect 82 0 91 0;
#X connect 90 0 72 0;
#X connect 91 0 79 0;
#X connect 92 0 79 0;
#X connect 93 0 79 0;
#X connect 94 0 79 0;
#X connect 95 0 79 0;
#X connect 96 0 79 0;
#X connect 97 0 79 0;
#X connect 99 0 100 0;
#X connect 99 0 101 0;
#X connect 99 0 102 0;
#X connect 99 0 103 0;
#X connect 99 0 104 0;
#X connect 99 0 105 0;
#X connect 99 0 106 0;
#X connect 99 0 127 0;
#X connect 100 0 107 0;
#X connect 101 0 108 0;
#X connect 102 0 109 0;
#X connect 103 0 110 0;
#X connect 104 0 111 0;
#X connect 105 0 112 0;
#X connect 106 0 113 0;
#X connect 107 0 121 0;
#X connect 108 0 121 0;
#X connect 109 0 121 0;
#X connect 110 0 121 0;
#X connect 111 0 121 0;
#X connect 112 0 121 0;
#X connect 113 0 121 0;
#X connect 121 0 122 0;
#X connect 122 0 42 0;
#X connect 125 0 121 0;
#X connect 127 0 125 0;
#X connect 128 0 99 0;
#X connect 129 0 1 0;
#X connect 130 0 12 0;
#X connect 131 0 36 0;
#X connect 132 0 24 0;
#X connect 133 0 61 0;
#X connect 134 0 55 0;
#X connect 135 0 58 0;
#X connect 136 0 58 1;
